<?xml version="1.0" standalone="no"?>
<!DOCTYPE svg PUBLIC "-//W3C//DTD SVG 20010904//EN"
 "http://www.w3.org/TR/2001/REC-SVG-20010904/DTD/svg10.dtd">
<svg version="1.0" xmlns="http://www.w3.org/2000/svg"
 width="80.000000pt" height="80.000000pt" viewBox="0 0 80.000000 80.000000"
 preserveAspectRatio="xMidYMid meet">

<g transform="translate(0.000000,80.000000) scale(0.100000,-0.100000)"
fill="#000000" stroke="none">
<path d="M149 657 l-36 -10 -6 -216 c-3 -119 -2 -219 2 -223 9 -10 219 -38
278 -38 39 0 43 -2 43 -25 0 -20 5 -25 25 -25 21 0 25 5 25 30 0 27 3 30 30
30 16 0 63 5 105 11 l75 11 0 97 c0 53 -3 152 -6 222 l-7 125 -33 10 c-20 7
-39 7 -49 1 -26 -14 -199 -36 -210 -26 -5 5 -18 9 -30 9 -15 0 -17 -2 -6 -9
11 -7 14 -36 12 -139 -3 -173 -7 -186 -55 -190 -21 -2 -44 2 -51 8 -15 13 -55
4 -67 -13 -4 -6 1 -16 10 -23 22 -16 15 -21 -28 -26 l-35 -3 1 60 c1 33 3 123
5 200 l4 140 95 -2 c84 -1 88 0 30 5 -36 4 -69 10 -75 13 -5 3 -26 1 -46 -4z
m494 -106 c5 -178 2 -296 -8 -303 -5 -4 -20 -8 -31 -8 -17 0 -20 5 -17 22 3
16 -3 27 -18 37 -20 12 -24 11 -39 -9 -12 -15 -25 -21 -46 -18 -28 3 -29 5
-32 58 -3 55 14 279 22 287 2 2 27 6 55 8 28 2 58 8 68 13 34 20 43 3 46 -87z
m26 37 c-1 -45 -2 -49 -9 -23 -11 44 -11 75 0 75 6 0 9 -23 9 -52z m-2 -115
c-3 -10 -5 -2 -5 17 0 19 2 27 5 18 2 -10 2 -26 0 -35z m3 -248 c0 -8 -7 -15
-16 -15 -14 0 -14 3 -4 15 7 8 14 15 16 15 2 0 4 -7 4 -15z m-200 -55 c0 -40
-13 -53 -24 -24 -11 29 -7 64 9 64 11 0 15 -11 15 -40z"/>
<path d="M540 600 c0 -13 11 -13 30 0 12 8 11 10 -7 10 -13 0 -23 -4 -23 -10z"/>
<path d="M190 441 c0 -16 9 -39 19 -52 l20 -24 18 25 c10 14 18 27 17 30 -8
39 -19 50 -45 50 -25 0 -29 -4 -29 -29z"/>
</g>
</svg>
